<svg xmlns="http://www.w3.org/2000/svg" xmlns:xlink="http://www.w3.org/1999/xlink" width="216" height="648" viewBox="0 0 216 648"><defs><linearGradient id="a" x1="990.82" y1="710.9" x2="1260.93" y2="440.79" gradientUnits="userSpaceOnUse"><stop offset="0" stop-color="#f54b64"/><stop offset="1" stop-color="#f78361"/></linearGradient><linearGradient id="b" x1="5.86" y1="210.14" x2="210.14" y2="5.86" xlink:href="#a"/></defs><path d="M1243.85,432h-176a20,20,0,0,0-20,20V628a20,20,0,0,0,20,20h52l-57.52,115.06A20,20,0,0,0,1080.22,792h31.35a20,20,0,0,0,14.14-5.86l87.35-87.34c50.79-50.8,50.79-50.8,50.79-122.64V452A20,20,0,0,0,1243.85,432Z" transform="translate(-1047.85 -144)" fill="url(#a)"/><rect width="216" height="216" rx="20" fill="url(#b)"/></svg>